<svg width="49" height="182" viewBox="0 0 49 182" fill="none" xmlns="http://www.w3.org/2000/svg">
<path d="M8.59324 180.976C8.1156 181.453 7.52652 181.692 6.82599 181.692C6.12546 181.692 5.53637 181.453 5.05874 180.976C4.5811 180.498 4.34229 179.909 4.34229 179.209V142.765C4.34229 142.033 4.59702 141.396 5.1065 140.854C5.64782 140.313 6.28467 140.042 7.01704 140.042H20.7252C21.4575 140.042 22.0944 140.313 22.6357 140.854C23.177 141.396 23.4477 142.033 23.4477 142.765V155.231C23.4477 155.964 23.177 156.6 22.6357 157.142C22.0944 157.683 21.4575 157.954 20.7252 157.954H9.73956C9.45298 157.954 9.30969 158.097 9.30969 158.384V179.209C9.30969 179.909 9.07087 180.498 8.59324 180.976ZM9.30969 144.532V147.159C9.30969 147.446 9.45298 147.589 9.73956 147.589H18.0982C18.3848 147.589 18.528 147.446 18.528 147.159V144.532C18.528 144.246 18.3848 144.102 18.0982 144.102H9.73956C9.45298 144.102 9.30969 144.246 9.30969 144.532ZM9.30969 151.315V153.989C9.30969 154.244 9.45298 154.372 9.73956 154.372H18.0982C18.3848 154.372 18.528 154.244 18.528 153.989V151.315C18.528 151.06 18.3848 150.933 18.0982 150.933H9.73956C9.45298 150.933 9.30969 151.06 9.30969 151.315ZM42.9352 140.042C43.6676 140.042 44.3044 140.313 44.8457 140.854C45.3871 141.396 45.6577 142.033 45.6577 142.765V174.528C45.6577 177.68 45.2915 179.622 44.5592 180.355C43.8268 181.119 41.9162 181.501 38.8275 181.501C38.3181 181.501 37.4424 181.453 36.2005 181.358C35.5955 181.326 35.0701 181.103 34.6243 180.689C34.2104 180.275 33.9875 179.75 33.9557 179.113C33.9238 178.54 34.0989 178.062 34.4811 177.68C34.895 177.266 35.3886 177.075 35.9617 177.107C37.2991 177.171 37.9837 177.202 38.0156 177.202C39.2574 177.202 40.0057 177.091 40.2604 176.868C40.5152 176.613 40.6426 175.881 40.6426 174.671V158.384C40.6426 158.097 40.4993 157.954 40.2127 157.954H28.7494C28.0171 157.954 27.3802 157.683 26.8389 157.142C26.3294 156.6 26.0747 155.964 26.0747 155.231V142.765C26.0747 142.033 26.3294 141.396 26.8389 140.854C27.3802 140.313 28.0171 140.042 28.7494 140.042H42.9352ZM40.6426 153.989V151.315C40.6426 151.06 40.4993 150.933 40.2127 150.933H31.3764C31.0898 150.933 30.9466 151.06 30.9466 151.315V153.989C30.9466 154.244 31.0898 154.372 31.3764 154.372H40.2127C40.4993 154.372 40.6426 154.244 40.6426 153.989ZM40.6426 147.159V144.532C40.6426 144.246 40.4993 144.102 40.2127 144.102H31.3764C31.0898 144.102 30.9466 144.246 30.9466 144.532V147.159C30.9466 147.446 31.0898 147.589 31.3764 147.589H40.2127C40.4993 147.589 40.6426 147.446 40.6426 147.159ZM13.8472 176.582C15.5349 175.117 16.6812 173.557 17.2862 171.901C17.3499 171.678 17.2544 171.566 16.9996 171.566H14.0383C13.5288 171.566 13.0989 171.391 12.7487 171.041C12.4302 170.691 12.271 170.261 12.271 169.751C12.271 169.242 12.4302 168.828 12.7487 168.51C13.0989 168.159 13.5288 167.984 14.0383 167.984H17.5728C17.8594 167.984 18.0026 167.841 18.0026 167.554V167.363V164.832C18.0026 164.545 17.8594 164.402 17.5728 164.402H14.9935C14.4522 164.402 13.9905 164.211 13.6084 163.829C13.2581 163.447 13.083 163.001 13.083 162.491C13.083 161.982 13.2581 161.536 13.6084 161.154C13.9905 160.772 14.4522 160.581 14.9935 160.581H34.5766C35.1179 160.581 35.5637 160.772 35.914 161.154C36.2961 161.536 36.4871 161.982 36.4871 162.491C36.4871 163.001 36.2961 163.447 35.914 163.829C35.5637 164.211 35.1179 164.402 34.5766 164.402H32.3795C32.0929 164.402 31.9496 164.545 31.9496 164.832V167.554C31.9496 167.841 32.0929 167.984 32.3795 167.984H35.4363C35.9458 167.984 36.3598 168.159 36.6782 168.51C37.0284 168.828 37.2036 169.242 37.2036 169.751C37.2036 170.261 37.0284 170.691 36.6782 171.041C36.3598 171.391 35.9458 171.566 35.4363 171.566H32.3795C32.0929 171.566 31.9496 171.71 31.9496 171.996V178.014C31.9496 178.683 31.7108 179.24 31.2331 179.686C30.7873 180.164 30.2301 180.403 29.5614 180.403C28.8927 180.403 28.3196 180.164 27.8419 179.686C27.3961 179.24 27.1732 178.683 27.1732 178.014V171.996C27.1732 171.71 27.0459 171.566 26.7911 171.566H22.5879C22.3332 171.566 22.174 171.71 22.1103 171.996C21.4098 174.83 19.945 177.266 17.7161 179.304C17.2066 179.782 16.5857 180.036 15.8533 180.068C15.1209 180.1 14.4522 179.893 13.8472 179.447C13.3696 179.097 13.1308 178.619 13.1308 178.014C13.1626 177.441 13.4014 176.964 13.8472 176.582ZM22.6357 166.886V167.602C22.6357 167.857 22.7631 167.984 23.0178 167.984H26.7911C27.0459 167.984 27.1732 167.841 27.1732 167.554V164.832C27.1732 164.545 27.0459 164.402 26.7911 164.402H23.0656C22.779 164.402 22.6357 164.545 22.6357 164.832V166.886Z" fill="#5A3226"/>
<path d="M2.90303 76.0456C2.40479 75.6434 2.10586 75.1239 2.00621 74.4871C1.93978 73.8168 2.12246 73.2303 2.55426 72.7276C2.98606 72.1913 3.53412 71.8897 4.19843 71.8226C4.86273 71.7556 5.46061 71.9232 5.99206 72.3254C8.15106 74.0347 9.66236 75.2747 10.526 76.0456C11.0574 76.4813 11.3397 77.0511 11.373 77.7549C11.4062 78.4252 11.2069 79.0285 10.7751 79.5647C10.3433 80.0674 9.79522 80.3523 9.13091 80.4194C8.49982 80.4529 7.93516 80.2518 7.43693 79.8161C6.27439 78.7771 4.76309 77.5203 2.90303 76.0456ZM0.910102 87.0554C0.411871 86.6532 0.112932 86.1337 0.0132862 85.497C-0.0531446 84.8602 0.12954 84.2904 0.56134 83.7877C0.99314 83.2849 1.52459 83.0001 2.15568 82.933C2.81999 82.8325 3.41786 82.9833 3.94931 83.3855C5.67651 84.6591 7.48675 86.1505 9.38003 87.8598C9.91147 88.329 10.1938 88.8988 10.227 89.5691C10.2935 90.2394 10.1108 90.8427 9.67896 91.3789C9.24716 91.8816 8.69911 92.1665 8.0348 92.2336C7.40371 92.2671 6.83905 92.066 6.34082 91.6303C4.24825 89.7534 2.43801 88.2285 0.910102 87.0554ZM5.89241 113.047C5.52704 113.65 4.9956 114.019 4.29807 114.153C3.60055 114.32 2.95285 114.203 2.35497 113.801C1.75709 113.399 1.39173 112.846 1.25886 112.142C1.126 111.471 1.24226 110.835 1.60763 110.231C3.63376 106.846 5.4274 103.126 6.98852 99.0707C7.22103 98.4339 7.63622 97.9815 8.2341 97.7133C8.83197 97.4452 9.42985 97.4285 10.0277 97.6631C10.6588 97.9312 11.1238 98.3837 11.4228 99.0205C11.7217 99.6572 11.7549 100.294 11.5224 100.931C10.0277 105.254 8.15106 109.293 5.89241 113.047ZM43.8078 82.933C44.4057 82.933 44.9205 83.1509 45.3523 83.5866C45.7841 83.9888 46 84.4915 46 85.0948C46 85.698 45.7841 86.2175 45.3523 86.6532C44.9205 87.0889 44.4057 87.3068 43.8078 87.3068H31.352C31.0863 87.3068 30.9534 87.4576 30.9534 87.7592V89.5188C30.9534 89.8204 31.0863 89.9713 31.352 89.9713H41.5657C42.3297 89.9713 42.994 90.2561 43.5587 90.8259C44.1233 91.3622 44.4057 92.0157 44.4057 92.7866V108.673C44.4057 111.689 44.1067 113.566 43.5088 114.304C42.911 115.074 41.4661 115.46 39.1742 115.46C38.4435 115.46 37.0817 115.41 35.0887 115.309C34.4244 115.275 33.8764 115.024 33.4446 114.555C33.0128 114.119 32.7803 113.583 32.7471 112.946C32.7138 112.343 32.9131 111.823 33.3449 111.388C33.81 110.985 34.3414 110.801 34.9393 110.835C36.4672 110.902 37.281 110.935 37.3806 110.935C38.3106 110.935 38.8587 110.851 39.0248 110.684C39.1908 110.483 39.2739 109.896 39.2739 108.924V94.7975C39.2739 94.4959 39.1244 94.345 38.8255 94.345H31.1029C30.804 94.345 30.6545 94.4959 30.6545 94.7975V104.752C30.6545 105.02 30.804 105.154 31.1029 105.154H32.4979C32.7637 105.154 32.8965 105.02 32.8965 104.752V98.5177C32.8965 97.8809 33.1124 97.3447 33.5442 96.909C34.0092 96.4398 34.5573 96.2051 35.1884 96.2051C35.8195 96.2051 36.3343 96.4398 36.7329 96.909C37.1647 97.3447 37.3806 97.8809 37.3806 98.5177V106.561C37.3806 107.332 37.0983 108.003 36.5336 108.572C36.0022 109.142 35.3545 109.427 34.5905 109.427H32.8965H23.8287C23.563 109.427 23.4301 109.561 23.4301 109.829V110.181C23.4301 110.818 23.2142 111.354 22.7824 111.79C22.3839 112.226 21.869 112.443 21.2379 112.443C20.6068 112.443 20.0588 112.226 19.5938 111.79C19.162 111.354 18.9461 110.818 18.9461 110.181V98.5177C18.9461 97.8809 19.162 97.3447 19.5938 96.909C20.0588 96.4398 20.6068 96.2051 21.2379 96.2051C21.869 96.2051 22.3839 96.4398 22.7824 96.909C23.2142 97.3447 23.4301 97.8809 23.4301 98.5177V104.752C23.4301 105.02 23.5796 105.154 23.8785 105.154H25.2736C25.5725 105.154 25.722 105.02 25.722 104.752V94.7975C25.722 94.4959 25.5725 94.345 25.2736 94.345H17.551C17.2521 94.345 17.1026 94.4959 17.1026 94.7975V113.399C17.1026 114.102 16.8535 114.706 16.3553 115.208C15.857 115.711 15.2592 115.963 14.5616 115.963C13.8641 115.963 13.2496 115.711 12.7182 115.208C12.2199 114.706 11.9708 114.102 11.9708 113.399V92.7866C11.9708 92.0157 12.2532 91.3622 12.8178 90.8259C13.3825 90.2561 14.0468 89.9713 14.8107 89.9713H25.0245C25.2902 89.9713 25.4231 89.8204 25.4231 89.5188V87.7592C25.4231 87.4576 25.2902 87.3068 25.0245 87.3068H12.5687C11.9708 87.3068 11.456 87.0889 11.0242 86.6532C10.5924 86.2175 10.3765 85.698 10.3765 85.0948C10.3765 84.4915 10.5924 83.9888 11.0242 83.5866C11.456 83.1509 11.9708 82.933 12.5687 82.933H18.6471C18.9461 82.933 19.0955 82.7822 19.0955 82.4806V78.7101C19.0955 78.4084 18.9461 78.2576 18.6471 78.2576H13.615C13.0503 78.2576 12.5521 78.0398 12.1203 77.6041C11.6885 77.1684 11.4726 76.6656 11.4726 76.0959C11.4726 75.5261 11.6885 75.0401 12.1203 74.6379C12.5521 74.2022 13.0503 73.9844 13.615 73.9844H18.6471C18.9461 73.9844 19.0955 73.8336 19.0955 73.5319V72.5767C19.0955 71.8394 19.3446 71.2194 19.8429 70.7166C20.3743 70.2139 21.0054 69.9625 21.7362 69.9625C22.4669 69.9625 23.0814 70.2139 23.5796 70.7166C24.0778 71.2194 24.327 71.8394 24.327 72.5767V73.5319C24.327 73.8336 24.4764 73.9844 24.7754 73.9844H32.3485C32.6474 73.9844 32.7969 73.8336 32.7969 73.5319V72.5767C32.7969 71.8394 33.046 71.2194 33.5442 70.7166C34.0425 70.2139 34.6569 69.9625 35.3877 69.9625C36.1184 69.9625 36.7329 70.2139 37.2311 70.7166C37.7626 71.2194 38.0283 71.8394 38.0283 72.5767V73.5319C38.0283 73.8336 38.1778 73.9844 38.4767 73.9844H42.8611C43.4258 73.9844 43.924 74.2022 44.3558 74.6379C44.7876 75.0401 45.0035 75.5261 45.0035 76.0959C45.0035 76.6656 44.7876 77.1684 44.3558 77.6041C43.924 78.0398 43.4258 78.2576 42.8611 78.2576H38.4767C38.1778 78.2576 38.0283 78.4084 38.0283 78.7101V82.4806C38.0283 82.7822 38.1778 82.933 38.4767 82.933H43.8078ZM32.7969 82.4806V78.7101C32.7969 78.4084 32.6474 78.2576 32.3485 78.2576H24.7754C24.4764 78.2576 24.327 78.4084 24.327 78.7101V82.4806C24.327 82.7822 24.4764 82.933 24.7754 82.933H32.3485C32.6474 82.933 32.7969 82.7822 32.7969 82.4806Z" fill="#5A3226"/>
<path d="M4.96208 22.1684C4.39245 22.1684 3.90659 21.9673 3.5045 21.5652C3.10241 21.1631 2.90137 20.6773 2.90137 20.1077C2.90137 19.538 3.10241 19.0522 3.5045 18.6501C3.90659 18.248 4.39245 18.0469 4.96208 18.0469H15.8688C16.1033 18.0469 16.3044 17.9297 16.4719 17.6951C17.0415 16.8239 17.5274 15.9862 17.9295 15.182C18.0635 14.914 17.9798 14.78 17.6782 14.78H8.37985C7.84373 14.78 7.37462 14.5957 6.97253 14.2271C6.60395 13.825 6.41966 13.3559 6.41966 12.8198C6.41966 12.2836 6.60395 11.8313 6.97253 11.4627C7.37462 11.0606 7.84373 10.8596 8.37985 10.8596H19.3368C19.6384 10.8596 19.8394 10.7255 19.9399 10.4575C20.275 9.45226 20.5096 8.68159 20.6436 8.14547C20.7106 7.87741 20.6101 7.74338 20.342 7.74338H6.77149C6.20186 7.74338 5.69925 7.52558 5.26365 7.08998C4.86156 6.65438 4.66051 6.15177 4.66051 5.58214C4.66051 5.01251 4.86156 4.52666 5.26365 4.12457C5.69925 3.68897 6.20186 3.47117 6.77149 3.47117H21.297C21.5651 3.47117 21.7326 3.32039 21.7996 3.01882C21.7996 2.98531 21.8164 2.9183 21.8499 2.81777C21.8834 2.71725 21.9001 2.63348 21.9001 2.56647C22.0342 1.79579 22.386 1.1759 22.9556 0.706799C23.5588 0.204187 24.2289 -0.0303658 24.9661 0.00314125C25.7032 0.0366483 26.2896 0.338216 26.7252 0.907845C27.1943 1.44396 27.3619 2.06385 27.2278 2.76751C27.2278 2.80102 27.2111 2.85128 27.1776 2.91829C27.1776 2.9518 27.1776 2.98531 27.1776 3.01882C27.1441 3.11934 27.1608 3.21986 27.2278 3.32038C27.3284 3.42091 27.4289 3.47117 27.5294 3.47117H44.769C45.3386 3.47117 45.8245 3.68897 46.2266 4.12457C46.6622 4.52666 46.88 5.01251 46.88 5.58214C46.88 6.15177 46.6622 6.65438 46.2266 7.08998C45.8245 7.52558 45.3386 7.74338 44.769 7.74338H26.5744C26.2729 7.74338 26.0886 7.87741 26.0216 8.14547C25.9881 8.2795 25.7367 9.05017 25.2676 10.4575C25.2006 10.7255 25.3011 10.8596 25.5692 10.8596H43.1607C43.6968 10.8596 44.1491 11.0606 44.5177 11.4627C44.9198 11.8313 45.1208 12.2836 45.1208 12.8198C45.1208 13.3559 44.9198 13.825 44.5177 14.2271C44.1491 14.5957 43.6968 14.78 43.1607 14.78H33.8623C33.7618 14.78 33.678 14.8302 33.611 14.9307C33.5775 14.9978 33.5775 15.0648 33.611 15.1318C34.2141 16.271 34.6833 17.1087 35.0183 17.6448C35.1859 17.9129 35.4204 18.0469 35.722 18.0469H46.5784C47.1481 18.0469 47.6339 18.248 48.036 18.6501C48.4381 19.0522 48.6391 19.538 48.6391 20.1077C48.6391 20.6773 48.4381 21.1631 48.036 21.5652C47.6339 21.9673 47.1481 22.1684 46.5784 22.1684H38.8382C38.7712 22.1684 38.7209 22.2019 38.6874 22.2689C38.6539 22.3359 38.6539 22.4029 38.6874 22.4699C40.9994 24.983 43.6633 27.1275 46.6789 28.9034C47.3491 29.272 47.8014 29.8248 48.036 30.562C48.3041 31.2657 48.3208 31.9693 48.0863 32.673C47.8182 33.3431 47.3491 33.7955 46.6789 34.03C46.0088 34.2646 45.3889 34.1808 44.8193 33.7787C44.0486 33.2761 42.9596 32.4552 41.5523 31.3159C41.3512 31.1819 41.2507 31.2321 41.2507 31.4667V43.3284C41.2507 44.099 40.9827 44.7357 40.4465 45.2383C39.9104 45.7744 39.2738 46.0425 38.5366 46.0425H37.5817C37.1125 46.0425 36.6937 45.8582 36.3251 45.4896C35.99 45.1545 35.8225 44.7524 35.8225 44.2833C35.8225 44.1158 35.7387 44.032 35.5712 44.032H15.9693C15.8018 44.032 15.718 44.1158 15.718 44.2833C15.718 44.7524 15.5337 45.1545 15.1651 45.4896C14.83 45.8582 14.428 46.0425 13.9589 46.0425H13.0039C12.2667 46.0425 11.6301 45.7744 11.094 45.2383C10.5913 44.7357 10.34 44.099 10.34 43.3284V31.4667C10.34 31.3997 10.2898 31.3494 10.1893 31.3159C10.1222 31.2824 10.0552 31.2824 9.98821 31.3159C8.71492 32.3546 7.60917 33.1756 6.67096 33.7787C6.10134 34.1473 5.48145 34.2311 4.8113 34.03C4.17465 33.7955 3.7223 33.3431 3.45424 32.673C3.21969 31.9693 3.21969 31.2657 3.45424 30.562C3.7223 29.8248 4.19141 29.272 4.86156 28.9034C7.87723 27.1275 10.5411 24.983 12.8531 22.4699C12.9201 22.3359 12.8699 22.2354 12.7023 22.1684H4.96208ZM35.8225 39.8101V37.0457C35.8225 36.7441 35.6717 36.5934 35.3702 36.5934H16.1201C15.852 36.5934 15.718 36.7441 15.718 37.0457V39.8101C15.718 40.1116 15.852 40.2624 16.1201 40.2624H35.3702C35.6717 40.2624 35.8225 40.1116 35.8225 39.8101ZM35.8225 32.5222V29.9086C35.8225 29.607 35.6717 29.4562 35.3702 29.4562H16.1201C15.852 29.4562 15.718 29.607 15.718 29.9086V32.5222C15.718 32.8238 15.852 32.9745 16.1201 32.9745H35.3702C35.6717 32.9745 35.8225 32.8238 35.8225 32.5222ZM22.1012 17.6448C22.0342 17.7119 22.0174 17.7956 22.0509 17.8962C22.1179 17.9967 22.2017 18.0469 22.3022 18.0469H29.4393C29.5399 18.0469 29.6069 18.0134 29.6404 17.9464C29.7074 17.8459 29.7241 17.7621 29.6906 17.6951C29.3891 17.159 28.9702 16.3213 28.4341 15.182C28.3001 14.8805 28.099 14.7297 27.831 14.7297H23.9608C23.6928 14.7297 23.5085 14.8637 23.408 15.1318C23.0394 15.9025 22.6038 16.7401 22.1012 17.6448ZM18.985 22.5202C18.1808 23.5924 17.4604 24.4971 16.8237 25.2343C16.6562 25.4689 16.7065 25.5861 16.9745 25.5861H34.6665C34.7335 25.5861 34.7838 25.5526 34.8173 25.4856C34.8508 25.3851 34.8508 25.3013 34.8173 25.2343C34.0801 24.3966 33.3765 23.4919 32.7063 22.5202C32.5388 22.2856 32.321 22.1684 32.0529 22.1684H19.6886C19.3871 22.1684 19.1525 22.2856 18.985 22.5202Z" fill="#5A3226"/>
</svg>
