<svg width="185" height="59" viewBox="0 0 185 59" fill="none" xmlns="http://www.w3.org/2000/svg">
<g clip-path="url(#clip0_628_453)">
<path d="M15.5837 58.5771C8.49298 58.2588 2.54216 52.8413 1.59442 45.8069C0.752796 39.5571 3.87804 33.6062 9.31283 30.7133C9.41065 30.6611 9.43139 30.5712 9.43139 30.5052C9.43139 30.4392 9.41065 30.3493 9.31283 30.2971C4.46804 27.7149 1.45859 22.7045 1.45859 17.2213C1.45859 15.516 1.74408 13.8517 2.30851 12.2639C0.850266 10.937 0 9.04082 0 7.04891C0 3.16223 3.16223 0 7.04926 0C9.28449 0 11.386 1.07286 12.7077 2.84528C15.0134 2.27567 17.4896 2.27291 19.8191 2.84632C21.1409 1.0732 23.2427 0 25.4783 0C29.3649 0 32.5272 3.16223 32.5272 7.04891C32.5272 9.04082 31.6769 10.9373 30.2187 12.2646C30.7831 13.8524 31.0686 15.5167 31.0686 17.222C31.0686 22.7052 28.0591 27.7152 23.215 30.2975C23.1144 30.3507 23.0937 30.4402 23.0937 30.5059C23.0937 30.5716 23.1144 30.6607 23.213 30.7133L23.2143 30.714C28.0591 33.2924 31.0686 38.3017 31.0686 43.7863C31.0686 52.1756 24.0553 58.9577 15.5837 58.5775V58.5771ZM7.04926 2.07382C4.0716 2.07382 1.69638 4.70342 2.12394 7.76231C2.31611 9.13621 3.11868 10.3511 4.2458 11.1603L4.82025 11.5726L4.50434 12.333C3.85972 13.8842 3.53275 15.5291 3.53275 17.2224C3.53275 21.9379 6.12122 26.2466 10.2882 28.4677C11.0389 28.8672 11.5055 29.6484 11.5055 30.5059C11.5055 31.3634 11.0389 32.1449 10.2879 32.5444C5.61314 35.0327 2.92512 40.1519 3.65027 45.5269C4.46666 51.5759 9.58519 56.234 15.6833 56.5057C22.9665 56.8303 28.9951 50.999 28.9951 43.7859C28.9951 39.0697 26.407 34.7627 22.241 32.5448C21.4882 32.1449 21.0202 31.3638 21.0202 30.5059C21.0202 29.648 21.4882 28.8662 22.2417 28.4666C26.4066 26.247 28.9951 21.9379 28.9951 17.2224C28.9951 15.5291 28.6685 13.8839 28.0235 12.333L27.7076 11.5726L28.2817 11.1606C29.4088 10.3518 30.2114 9.13656 30.4036 7.76265C30.8311 4.70377 28.4563 2.07417 25.4786 2.07417C23.7082 2.07417 22.0561 3.02812 21.1668 4.56413L20.7555 5.27476L19.9695 5.03696C17.5597 4.30801 14.9356 4.31285 12.5608 5.03627L11.7734 5.27614L11.3611 4.56379C10.4721 3.02778 8.81961 2.07382 7.04926 2.07382Z" fill="#EFE1DC"/>
<path d="M16.263 31.8887C16.8278 31.8887 17.2857 31.4308 17.2857 30.866C17.2857 30.3012 16.8278 29.8433 16.263 29.8433C15.6981 29.8433 15.2402 30.3012 15.2402 30.866C15.2402 31.4308 15.6981 31.8887 16.263 31.8887Z" fill="#EFE1DC"/>
<path d="M16.2632 36.3467C16.9937 36.3467 17.5859 35.7545 17.5859 35.0239C17.5859 34.2934 16.9937 33.7012 16.2632 33.7012C15.5326 33.7012 14.9404 34.2934 14.9404 35.0239C14.9404 35.7545 15.5326 36.3467 16.2632 36.3467Z" fill="#EFE1DC"/>
<path d="M16.2634 28.0316C16.6264 28.0316 16.9208 27.7373 16.9208 27.3742C16.9208 27.0111 16.6264 26.7168 16.2634 26.7168C15.9003 26.7168 15.606 27.0111 15.606 27.3742C15.606 27.7373 15.9003 28.0316 16.2634 28.0316Z" fill="#EFE1DC"/>
<path d="M20.9301 40.6278C21.9611 41.6588 21.9611 43.3303 20.9301 44.3613L16.2633 49.0281L11.5965 44.3613C10.5655 43.3303 10.5655 41.6588 11.5965 40.6278C12.6276 39.5967 14.2991 39.5967 15.3301 40.6278L16.2633 41.561L17.1965 40.6278C18.2276 39.5967 19.8991 39.5967 20.9301 40.6278Z" fill="#EFE1DC"/>
<path d="M8.3877 16.9545C8.3877 16.9545 9.47196 18.7705 11.6913 18.8033C15.8337 18.8642 19.6772 14.4856 23.127 16.5716C26.7002 18.7321 20.9492 25.9656 14.351 24.039C8.79797 22.4177 8.3877 16.9545 8.3877 16.9545Z" fill="#EFE1DC"/>
<path d="M23.3335 20.9093C23.3335 20.9093 21.5061 21.9746 19.5477 20.9301C15.8923 18.9804 14.6452 13.2894 10.6168 13.4471C6.44429 13.6105 7.98099 22.7229 14.6881 24.2271C20.3327 25.4928 23.3335 20.9093 23.3335 20.9093Z" fill="#EFE1DC"/>
<path d="M52.5552 38.763C52.1691 38.2484 51.7945 37.712 51.4229 37.1811C50.9871 36.5575 50.5363 35.9133 50.0832 35.3274C49.0912 34.0441 48.065 32.7168 46.5104 30.8798L46.3576 30.7014C45.8526 30.1124 45.4876 29.6873 45.4462 29.5587C45.4462 29.539 45.4455 29.5211 45.4424 29.5211C45.4417 29.5211 45.4413 29.5218 45.4403 29.5235C45.4907 29.4008 45.8671 28.9494 46.4364 28.2654C47.1754 27.3785 48.149 26.0882 49.4846 24.2895C52.6983 19.8616 53.5067 18.535 53.5067 16.9406C53.5067 14.9708 52.1415 13.4282 50.3988 13.4282C49.0905 13.4282 48.6136 14.0901 47.474 16.1467C44.7822 21.1978 40.6608 26.1197 40.6432 26.1411L40.6007 26.1867C39.5026 27.4942 39.1504 28.33 39.1504 29.6268C39.1504 31.1366 39.6695 32.0325 40.8371 33.4755C45.1403 38.6718 46.6656 41.1818 48.9741 44.9817L49.0829 45.1608C49.6626 46.1189 50.3307 46.5461 51.2477 46.5461C52.9613 46.5461 54.3556 44.878 54.3556 42.8281C54.3556 41.6792 53.7829 40.3875 52.5552 38.763Z" fill="#EFE1DC"/>
<path d="M96.345 19.9204C89.4633 19.9204 84.5615 25.9549 84.5615 34.3977C84.5615 39.6096 86.494 42.9923 89.4868 42.9923C91.7024 42.9923 93.1164 41.3164 94.7187 36.8663C95.9679 33.3311 96.8869 29.338 97.5467 24.3397C98.9607 24.5834 99.6679 25.0099 100.446 26.0164C101.53 27.3875 102.095 29.3991 102.095 31.7159C102.095 37.7203 99.0786 39.3359 97.6646 40.0665C96.4393 40.7066 95.8735 41.0115 95.8735 42.4134C95.8735 43.9985 96.7456 45.2179 97.8768 45.2179C99.5971 45.2179 102.355 43.0535 103.886 40.5242C105.3 38.1773 106.008 35.1903 106.008 31.5939C106.008 24.3401 102.331 19.9211 96.345 19.9211V19.9204ZM93.4938 26.9005C92.2616 32.9343 90.7391 37.8113 89.5103 37.8113C88.6857 37.8113 88.0728 36.287 88.0728 34.2142C88.0728 32.307 88.696 27.8362 91.6937 25.5685C92.5582 24.9145 93.7202 25.7921 93.4938 26.9005Z" fill="#EFE1DC"/>
<path d="M136.539 21.6369C136.537 20.8931 135.933 20.2914 135.19 20.2914H125.339C125.359 19.5548 125.369 18.4246 125.369 16.9014H117.679V20.2914H110.814V28.7871H117.325C117.05 30.6919 116.53 32.1909 115.764 33.2828C114.526 35.086 112.188 36.229 108.751 36.7112C110.008 39.7082 110.961 42.7564 111.61 45.8543C116.343 44.4828 119.731 42.3623 121.774 39.4918C122.678 40.9394 123.738 43.0985 124.956 45.9684C127.726 45.6127 129.936 45.0351 131.586 44.235C133.235 43.4348 134.463 42.2542 135.268 40.6919C136.073 39.1299 136.495 37.0537 136.535 34.4635C136.554 33.4221 136.564 31.8481 136.564 29.7393L136.539 21.6369ZM128.609 34.9588C128.275 35.7206 127.711 36.2294 126.915 36.4827C126.437 36.6351 125.805 36.733 125.018 36.7755C124.19 36.8204 123.571 35.9781 123.824 35.1313C124.269 33.6367 124.616 31.8854 124.863 29.8776C124.94 29.2527 125.442 28.7871 126.029 28.7871H127.903C128.534 28.7871 129.056 29.3242 129.081 30.0006C129.1 30.5094 129.11 30.9812 129.11 31.4157C129.11 33.0163 128.943 34.1974 128.609 34.9588Z" fill="#EFE1DC"/>
<path d="M164.351 19.2671L166.945 26.2631C167.057 26.5645 167.059 26.9008 166.949 27.2029C165.532 31.0996 163.875 34.2559 161.977 36.6733C160.003 39.1882 157.655 41.1566 154.935 42.5782C152.214 44.0012 148.801 45.2071 144.697 46.1973L144.019 44.6357C143.312 42.9591 142.644 41.487 142.016 40.2164C141.387 38.9466 140.709 37.7911 139.983 36.7497C145.09 36.2675 149.062 35.2514 151.901 33.7015C154.739 32.1527 156.914 30.0319 158.427 27.3397L154.096 27.3781C147.83 27.4286 143.233 27.5437 140.307 27.7206V18.3867H163.086C163.65 18.3867 164.155 18.7375 164.351 19.2671Z" fill="#EFE1DC"/>
<path d="M179.375 35.2788V39.113H185V45.2871H168.189V39.113H173.815V35.2788H168.953V29.3301H182.887C183.632 29.3301 184.236 29.9346 184.236 30.6798V35.2788H179.375Z" fill="#EFE1DC"/>
<path d="M79.5463 37.5748C77.4158 35.6959 74.7821 34.5328 73.6515 34.0593C73.6315 33.3141 73.6097 32.5668 73.5755 31.5057C78.1776 31.0454 79.7879 30.6434 79.7879 27.8105C79.7879 25.8943 78.88 24.6068 77.5282 24.6068C77.2634 24.6068 76.8563 24.669 76.2832 24.8014C75.7357 24.9649 74.582 25.2003 73.5302 25.37V23.8454L74.5951 23.7078C78.4987 23.2547 79.9736 22.8171 79.9736 19.9929C79.9736 18.1566 79.0345 16.8238 77.74 16.8238C77.6457 16.8238 77.6312 16.8238 75.6334 17.2503C74.9148 17.4041 74.1347 17.5707 73.5665 17.6879C73.5675 17.6374 73.5682 17.5856 73.5693 17.5337C73.5762 17.1017 73.5831 16.6565 73.5831 16.4961C73.5831 15.78 73.5831 13.6011 70.8992 13.6011C68.544 13.6011 68.2416 15.4233 68.2416 17.0104C68.2416 17.4494 68.252 17.8296 68.2665 18.1987C67.3243 18.2088 66.3814 18.2378 65.5429 18.2641C65.2792 18.2641 64.4503 18.1987 63.7193 18.1414C62.9205 18.0785 62.2306 18.0242 61.9635 18.0242C60.4651 18.0242 59.571 19.2605 59.571 21.3309C59.571 24.4316 61.4471 24.4316 64.8537 24.4316C66.3966 24.4316 67.5068 24.405 68.4041 24.3438C68.4068 24.6469 68.4213 25.6351 68.4234 25.8259C67.982 25.8594 67.5386 25.876 67.081 25.876C66.5957 25.876 64.6522 25.8045 63.608 25.7661C63.1725 25.7502 62.869 25.7388 62.8383 25.7388C61.8954 25.7388 60.3134 26.137 60.3134 28.8056C60.3134 29.7928 60.6518 30.7346 61.1723 31.2382C61.8805 32.0093 62.681 32.0093 64.6148 32.0093C65.4579 32.0093 67.373 31.9174 68.4016 31.868C68.43 31.8666 68.458 31.8655 68.4849 31.8642C68.4894 32.1593 68.4963 32.4635 68.5064 32.7801C67.3872 32.6864 66.8587 32.6654 66.4173 32.6654C61.9638 32.6654 59.3052 35.0807 59.3052 39.1267C59.3052 43.4088 62.1622 45.9651 66.9475 45.9651C71.0081 45.9651 73.2025 44.2732 73.6581 40.7781C73.6581 40.7764 73.6626 40.7356 73.6698 40.6696C74.7797 41.4141 75.2432 41.8178 76.5372 42.9698C77.1653 43.5391 77.6288 43.771 78.1372 43.771C79.5778 43.771 80.7948 42.1776 80.7948 40.2925C80.7948 39.1968 80.4243 38.387 79.5457 37.5758L79.5463 37.5748ZM63.1763 40.0174C63.0139 40.0091 62.8756 39.8812 62.8645 39.7191C62.7605 38.2011 64.0667 36.6848 65.9905 36.2019C67.4854 35.8269 68.9457 36.1781 69.8167 37.0038C70.0244 37.2008 69.9176 37.5523 69.6335 37.5869C68.8548 37.6816 67.8068 38.0068 66.5179 38.8547C64.9346 39.8971 63.8029 40.0495 63.1763 40.0174ZM67.4919 42.1838C65.997 42.5592 64.5364 42.2077 63.6654 41.382C63.4577 41.1849 63.5645 40.8334 63.8486 40.7989C64.6273 40.7042 65.6753 40.3789 66.9634 39.5311C68.5458 38.49 69.6774 38.3366 70.3057 38.3687C70.4682 38.377 70.6065 38.5049 70.6175 38.667C70.7216 40.1847 69.4154 41.701 67.4916 42.1838H67.4919Z" fill="#EFE1DC"/>
</g>
<defs>
<clipPath id="clip0_628_453">
<rect width="185" height="58.5927" fill="white"/>
</clipPath>
</defs>
</svg>
