<svg width="157" height="55" viewBox="0 0 157 55" fill="none" xmlns="http://www.w3.org/2000/svg">
<path d="M19.4615 49.9749C14.0189 49.7306 9.45127 45.5723 8.72382 40.1729C8.07782 35.3758 10.4767 30.8081 14.6482 28.5876C14.7233 28.5475 14.7392 28.4785 14.7392 28.4279C14.7392 28.3772 14.7233 28.3082 14.6482 28.2682C10.9295 26.2861 8.61956 22.4403 8.61956 18.2316C8.61956 16.9226 8.8387 15.6452 9.27193 14.4264C8.15264 13.408 7.5 11.9525 7.5 10.4236C7.5 7.44033 9.92722 5.01311 12.9108 5.01311C14.6265 5.01311 16.2395 5.8366 17.254 7.19705C19.0238 6.75984 20.9244 6.75771 22.7125 7.19785C23.727 5.83686 25.3403 5.01311 27.0563 5.01311C30.0395 5.01311 32.4668 7.44033 32.4668 10.4236C32.4668 11.9525 31.8141 13.4082 30.6948 14.427C31.1281 15.6458 31.3472 16.9232 31.3472 18.2322C31.3472 22.4409 29.0372 26.2864 25.3191 28.2684C25.2419 28.3093 25.226 28.378 25.226 28.4284C25.226 28.4788 25.2419 28.5473 25.3175 28.5876L25.3185 28.5881C29.0372 30.5672 31.3472 34.4122 31.3472 38.622C31.3472 45.0613 25.964 50.267 19.4615 49.9752V49.9749ZM12.9108 6.6049C10.6252 6.6049 8.80209 8.6233 9.13026 10.9712C9.27777 12.0258 9.89379 12.9583 10.7589 13.5793L11.1999 13.8959L10.9574 14.4795C10.4626 15.6702 10.2116 16.9327 10.2116 18.2324C10.2116 21.8519 12.1984 25.1591 15.3969 26.8639C15.9731 27.1706 16.3313 27.7702 16.3313 28.4284C16.3313 29.0866 15.9731 29.6865 15.3966 29.9931C11.8085 31.903 9.74523 35.8324 10.3018 39.958C10.9285 44.601 14.8573 48.1765 19.5379 48.385C25.1283 48.6341 29.7557 44.1583 29.7557 38.6217C29.7557 35.0017 27.7691 31.6958 24.5715 29.9934C23.9936 29.6865 23.6344 29.0869 23.6344 28.4284C23.6344 27.7699 23.9936 27.1698 24.572 26.8631C27.7688 25.1594 29.7557 21.8519 29.7557 18.2324C29.7557 16.9327 29.505 15.6699 29.0099 14.4795L28.7674 13.8959L29.2081 13.5796C30.0732 12.9588 30.6893 12.026 30.8368 10.9715C31.1649 8.62356 29.3421 6.60517 27.0565 6.60517C25.6977 6.60517 24.4295 7.33739 23.7469 8.51638L23.4312 9.06184L22.8279 8.87931C20.9783 8.3198 18.9641 8.32351 17.1412 8.87878L16.5369 9.0629L16.2204 8.51612C15.538 7.33713 14.2696 6.6049 12.9108 6.6049Z" fill="url(#paint0_linear_628_379)"/>
<path d="M19.9833 29.4899C20.4168 29.4899 20.7683 29.1384 20.7683 28.7048C20.7683 28.2713 20.4168 27.9198 19.9833 27.9198C19.5497 27.9198 19.1982 28.2713 19.1982 28.7048C19.1982 29.1384 19.5497 29.4899 19.9833 29.4899Z" fill="#301B0F"/>
<path d="M19.9831 32.9112C20.5438 32.9112 20.9984 32.4566 20.9984 31.8959C20.9984 31.3351 20.5438 30.8806 19.9831 30.8806C19.4223 30.8806 18.9678 31.3351 18.9678 31.8959C18.9678 32.4566 19.4223 32.9112 19.9831 32.9112Z" fill="#301B0F"/>
<path d="M19.9831 26.5291C20.2618 26.5291 20.4877 26.3032 20.4877 26.0245C20.4877 25.7458 20.2618 25.5199 19.9831 25.5199C19.7044 25.5199 19.4785 25.7458 19.4785 26.0245C19.4785 26.3032 19.7044 26.5291 19.9831 26.5291Z" fill="#301B0F"/>
<path d="M23.5653 36.1974C24.3567 36.9888 24.3567 38.2718 23.5653 39.0632L19.9832 42.6452L16.4012 39.0632C15.6098 38.2718 15.6098 36.9888 16.4012 36.1974C17.1925 35.406 18.4755 35.406 19.2669 36.1974L19.9832 36.9137L20.6995 36.1974C21.4909 35.406 22.7739 35.406 23.5653 36.1974Z" fill="#A86B57"/>
<path d="M13.9385 18.0266C13.9385 18.0266 14.7707 19.4204 16.4742 19.4456C19.6538 19.4923 22.6039 16.1315 25.2519 17.7326C27.9946 19.391 23.5802 24.9432 18.5157 23.4644C14.2534 22.2199 13.9385 18.0266 13.9385 18.0266Z" fill="#604337"/>
<path d="M25.4101 21.0621C25.4101 21.0621 24.0075 21.8798 22.5043 21.078C19.6985 19.5815 18.7413 15.2133 15.6493 15.3343C12.4466 15.4598 13.6261 22.4541 18.7742 23.6087C23.1068 24.5802 25.4101 21.0621 25.4101 21.0621Z" fill="#3B251C"/>
<path d="M47.8399 34.7664C47.5435 34.3714 47.256 33.9596 46.9708 33.5521C46.6362 33.0735 46.2903 32.579 45.9425 32.1293C45.181 31.1443 44.3934 30.1255 43.2001 28.7155L43.0828 28.5786C42.6952 28.1265 42.415 27.8002 42.3832 27.7015C42.3832 27.6864 42.3827 27.6726 42.3803 27.6726C42.3798 27.6726 42.3795 27.6731 42.3787 27.6744C42.4174 27.5802 42.7063 27.2338 43.1433 26.7087C43.7105 26.028 44.4578 25.0376 45.483 23.657C47.9497 20.2583 48.5702 19.24 48.5702 18.0162C48.5702 16.5043 47.5223 15.3202 46.1847 15.3202C45.1805 15.3202 44.8144 15.8283 43.9397 17.4068C41.8736 21.2839 38.7101 25.0618 38.6966 25.0782L38.664 25.1132C37.8211 26.1169 37.5508 26.7583 37.5508 27.7538C37.5508 28.9126 37.9493 29.6002 38.8454 30.7079C42.1484 34.6964 43.3192 36.623 45.0911 39.5397L45.1747 39.6771C45.6196 40.4125 46.1324 40.7404 46.8362 40.7404C48.1516 40.7404 49.2218 39.4601 49.2218 37.8866C49.2218 37.0047 48.7822 36.0133 47.8399 34.7664Z" fill="#5A3226"/>
<path d="M81.4513 20.3034C76.1692 20.3034 72.4067 24.9352 72.4067 31.4157C72.4067 35.4161 73.89 38.0126 76.1872 38.0126C77.8878 38.0126 78.9732 36.7262 80.2031 33.3104C81.1619 30.597 81.8673 27.532 82.3738 23.6955C83.4591 23.8825 84.0019 24.2099 84.5988 24.9824C85.4308 26.0349 85.8648 27.5789 85.8648 29.3572C85.8648 33.966 83.5496 35.206 82.4642 35.7668C81.5237 36.2582 81.0894 36.4922 81.0894 37.5682C81.0894 38.7849 81.7588 39.7209 82.6271 39.7209C83.9475 39.7209 86.0641 38.0596 87.2399 36.1181C88.3252 34.3167 88.868 32.024 88.868 29.2636C88.868 23.6957 86.046 20.3039 81.4513 20.3039V20.3034ZM79.2629 25.6611C78.3171 30.2924 77.1484 34.0358 76.2053 34.0358C75.5723 34.0358 75.1019 32.8658 75.1019 31.2748C75.1019 29.8109 75.5802 26.3792 77.8812 24.6386C78.5447 24.1367 79.4366 24.8103 79.2629 25.6611Z" fill="#5A3226"/>
<path d="M112.304 21.6206C112.302 21.0496 111.839 20.5878 111.268 20.5878H103.707C103.722 20.0224 103.729 19.1549 103.729 17.9857H97.827V20.5878H92.5576V27.1088H97.5556C97.3442 28.5709 96.9449 29.7215 96.357 30.5596C95.4072 31.9436 93.6127 32.821 90.9746 33.1911C91.9392 35.4915 92.6707 37.8311 93.1684 40.209C96.8016 39.1563 99.4024 37.5287 100.971 35.3254C101.664 36.4365 102.478 38.0938 103.413 40.2966C105.538 40.0236 107.235 39.5803 108.501 38.9661C109.768 38.3519 110.71 37.4457 111.328 36.2465C111.946 35.0476 112.27 33.454 112.3 31.4658C112.315 30.6665 112.323 29.4583 112.323 27.8397L112.304 21.6206ZM106.217 31.846C105.96 32.4307 105.527 32.8212 104.916 33.0157C104.549 33.1327 104.064 33.2078 103.46 33.2404C102.825 33.2749 102.35 32.6284 102.544 31.9784C102.885 30.8312 103.152 29.487 103.342 27.9458C103.401 27.4662 103.786 27.1088 104.237 27.1088H105.675C106.159 27.1088 106.56 27.5211 106.579 28.0403C106.594 28.4308 106.601 28.7929 106.601 29.1264C106.601 30.355 106.473 31.2615 106.217 31.846Z" fill="#5A3226"/>
<path d="M133.651 19.8014L135.642 25.1713C135.727 25.4027 135.729 25.6608 135.644 25.8927C134.557 28.8837 133.285 31.3064 131.828 33.1619C130.313 35.0922 128.511 36.6031 126.423 37.6942C124.335 38.7865 121.715 39.7121 118.564 40.4722L118.044 39.2736C117.502 37.9866 116.989 36.8567 116.507 35.8815C116.024 34.9067 115.504 34.0198 114.946 33.2205C118.866 32.8504 121.915 32.0704 124.094 30.8808C126.272 29.692 127.942 28.0641 129.103 25.9977L125.779 26.0272C120.969 26.0659 117.441 26.1543 115.195 26.2901V19.1257H132.679C133.112 19.1257 133.5 19.395 133.651 19.8014Z" fill="#5A3226"/>
<path d="M145.182 32.0919V35.0349H149.5V39.7739H136.597V35.0349H140.914V32.0919H137.182V27.5259H147.878C148.45 27.5259 148.914 27.9899 148.914 28.5619V32.0919H145.182Z" fill="#5A3226"/>
<path d="M68.5574 33.854C66.9221 32.4119 64.9006 31.5191 64.0328 31.1557C64.0174 30.5837 64.0007 30.0101 63.9744 29.1957C67.5069 28.8423 68.7429 28.5337 68.7429 26.3593C68.7429 24.8885 68.0459 23.9003 67.0084 23.9003C66.8051 23.9003 66.4926 23.948 66.0528 24.0496C65.6325 24.1751 64.747 24.3558 63.9396 24.4861V23.3158L64.757 23.2102C67.7533 22.8624 68.8854 22.5266 68.8854 20.3588C68.8854 18.9493 68.1645 17.9263 67.171 17.9263C67.0986 17.9263 67.0874 17.9263 65.554 18.2537C65.0024 18.3717 64.4037 18.4996 63.9675 18.5895C63.9683 18.5508 63.9688 18.511 63.9696 18.4712C63.9749 18.1396 63.9802 17.7979 63.9802 17.6748C63.9802 17.1251 63.9802 15.4526 61.9202 15.4526C60.1124 15.4526 59.8803 16.8513 59.8803 18.0695C59.8803 18.4065 59.8883 18.6983 59.8994 18.9816C59.1762 18.9893 58.4525 19.0116 57.8088 19.0318C57.6064 19.0318 56.9702 18.9816 56.4091 18.9376C55.796 18.8893 55.2665 18.8477 55.0614 18.8477C53.9113 18.8477 53.225 19.7966 53.225 21.3858C53.225 23.7658 54.6651 23.7658 57.2798 23.7658C58.4641 23.7658 59.3163 23.7453 60.005 23.6984C60.0071 23.9311 60.0183 24.6895 60.0199 24.836C59.6811 24.8617 59.3407 24.8745 58.9894 24.8745C58.6169 24.8745 57.1252 24.8195 56.3237 24.7901C55.9894 24.7779 55.7565 24.7691 55.7329 24.7691C55.0091 24.7691 53.7949 25.0748 53.7949 27.1231C53.7949 27.8808 54.0546 28.6038 54.4541 28.9903C54.9977 29.5822 55.6122 29.5822 57.0965 29.5822C57.7436 29.5822 59.2136 29.5116 60.0031 29.4737C60.0249 29.4726 60.0464 29.4718 60.0671 29.4708C60.0705 29.6973 60.0758 29.9308 60.0835 30.1738C59.2245 30.1019 58.8188 30.0857 58.4801 30.0857C55.0617 30.0857 53.021 31.9396 53.021 35.0452C53.021 38.332 55.214 40.2942 58.887 40.2942C62.0038 40.2942 63.6881 38.9955 64.0378 36.3128C64.0378 36.3115 64.0413 36.2802 64.0468 36.2295C64.8987 36.801 65.2545 37.1108 66.2477 37.9951C66.7298 38.432 67.0856 38.6101 67.4758 38.6101C68.5816 38.6101 69.5157 37.387 69.5157 35.9401C69.5157 35.0991 69.2313 34.4775 68.5569 33.8548L68.5574 33.854ZM55.9923 35.7289C55.8677 35.7225 55.7615 35.6244 55.753 35.5C55.6732 34.3348 56.6758 33.1709 58.1524 32.8003C59.2998 32.5124 60.4207 32.782 61.0893 33.4158C61.2487 33.567 61.1667 33.8368 60.9487 33.8633C60.3509 33.936 59.5466 34.1857 58.5573 34.8364C57.3419 35.6366 56.4733 35.7536 55.9923 35.7289ZM59.3049 37.3918C58.1575 37.6799 57.0363 37.4101 56.3677 36.7763C56.2083 36.6251 56.2903 36.3553 56.5084 36.3287C57.1061 36.2561 57.9105 36.0064 58.8992 35.3556C60.1138 34.5565 60.9824 34.4388 61.4647 34.4634C61.5894 34.4698 61.6955 34.568 61.704 34.6924C61.7838 35.8573 60.7813 37.0212 59.3046 37.3918H59.3049Z" fill="#5A3226"/>
<defs>
<linearGradient id="paint0_linear_628_379" x1="3.45233" y1="15.09" x2="35.3797" y2="35.7326" gradientUnits="userSpaceOnUse">
<stop stop-color="#5A3226"/>
<stop offset="0.088" stop-color="#5D352A"/>
<stop offset="0.179" stop-color="#674136"/>
<stop offset="0.272" stop-color="#77554B"/>
<stop offset="0.366" stop-color="#8E7068"/>
<stop offset="0.459" stop-color="#AB938D"/>
<stop offset="0.535" stop-color="#C8B5B1"/>
<stop offset="0.542" stop-color="#C5B2AE"/>
<stop offset="0.699" stop-color="#977B74"/>
<stop offset="0.833" stop-color="#765349"/>
<stop offset="0.938" stop-color="#613B2F"/>
<stop offset="1" stop-color="#5A3226"/>
</linearGradient>
</defs>
</svg>
