<svg width="50" height="50" viewBox="0 0 50 50" fill="none" xmlns="http://www.w3.org/2000/svg">
<path d="M30.9101 38.3413C30.2279 38.2436 29.544 38.1662 28.86 38.1053L28.0894 39.4733C29.9606 39.6318 31.7747 39.9471 33.3842 40.4522C33.9778 40.6624 34.7097 40.9537 35.0287 41.363C34.918 41.5215 34.7576 41.6192 34.5456 41.7483C30.8769 43.5292 23.4085 43.402 19.3434 42.8212C18.0086 42.6092 16.6259 42.3604 15.4553 41.7464C15.2433 41.6174 15.081 41.5197 14.9722 41.3611C15.2893 40.9537 16.0212 40.655 16.6167 40.4485C17.474 40.1573 18.3939 39.9508 19.3213 39.7904C20.1472 39.6576 21.0174 39.5526 21.9152 39.477L21.1483 38.1146C20.4625 38.1772 19.7766 38.2528 19.0908 38.3469C17.4482 38.6252 13.4494 39.217 13.3628 41.3722C13.4236 43.5255 17.4205 44.2168 19.0705 44.5339C23.0011 45.1718 26.9906 45.1405 30.9304 44.5284C32.5712 44.2205 36.581 43.5237 36.6381 41.3722C36.5478 39.2133 32.5619 38.6271 30.9101 38.3395V38.3413Z" fill="#5A3226"/>
<path d="M32.1726 7.05929C37.5061 10.4128 39.1764 16.8045 36.2469 22.0034L32.0435 29.4663L25.001 41.9658L17.9585 29.4663L13.7533 22.0053C10.8238 16.8045 12.4941 10.4128 17.8295 7.05745C19.9017 5.75403 22.361 5 25.001 5C27.641 5 30.1004 5.75587 32.1726 7.05929Z" fill="#5A3226"/>
<path d="M28.7583 17.5916C28.9482 18.0599 29.0514 18.5705 29.0514 19.107C29.0514 21.3451 27.2373 22.5988 24.9992 22.5988C22.7611 22.5988 20.947 21.3433 20.947 19.107C20.947 18.5705 21.0521 18.0599 21.2401 17.5916C20.8142 17.2708 20.5396 16.7601 20.5396 16.1849C20.5396 15.2115 21.3268 14.4243 22.3002 14.4243C22.9252 14.4243 23.4727 14.7488 23.7861 15.2392C24.1696 15.1193 24.577 15.0548 24.9992 15.0548C25.4214 15.0548 25.8307 15.1193 26.2123 15.2392C26.5238 14.7488 27.0732 14.4243 27.6982 14.4243C28.6698 14.4243 29.4588 15.2115 29.4588 16.1849C29.4588 16.7601 29.1823 17.2708 28.7564 17.5916H28.7583Z" fill="white"/>
</svg>
