<svg width="246" height="27" viewBox="0 0 246 27" fill="none" xmlns="http://www.w3.org/2000/svg">
<path d="M10.3359 26.2441C8.19141 26.2441 6.3457 25.7109 4.79883 24.6445C3.25195 23.5781 2.0625 22.0664 1.23047 20.1094C0.410156 18.1406 0 15.8145 0 13.1309V13.0957C0 10.4004 0.410156 8.07422 1.23047 6.11719C2.0625 4.16016 3.25195 2.6543 4.79883 1.59961C6.3457 0.533203 8.19141 0 10.3359 0C12.4805 0 14.3203 0.533203 15.8555 1.59961C17.4023 2.6543 18.5918 4.16016 19.4238 6.11719C20.2559 8.07422 20.6719 10.4004 20.6719 13.0957V13.1309C20.6719 15.8145 20.2559 18.1406 19.4238 20.1094C18.5918 22.0664 17.4023 23.5781 15.8555 24.6445C14.3203 25.7109 12.4805 26.2441 10.3359 26.2441ZM10.3359 21.9902C11.3906 21.9902 12.2871 21.6387 13.0254 20.9355C13.7637 20.2324 14.3262 19.2188 14.7129 17.8945C15.1113 16.5703 15.3105 14.9824 15.3105 13.1309V13.0957C15.3105 11.2324 15.1113 9.64453 14.7129 8.33203C14.3262 7.00781 13.7637 6 13.0254 5.30859C12.2871 4.60547 11.3906 4.25391 10.3359 4.25391C9.28125 4.25391 8.37891 4.60547 7.62891 5.30859C6.89062 6 6.32812 7.00781 5.94141 8.33203C5.55469 9.64453 5.36133 11.2324 5.36133 13.0957V13.1309C5.36133 14.9824 5.55469 16.5703 5.94141 17.8945C6.32812 19.2188 6.89062 20.2324 7.62891 20.9355C8.37891 21.6387 9.28125 21.9902 10.3359 21.9902ZM33.8379 26.2441C31.8223 26.2441 30.0469 25.9336 28.5117 25.3125C26.9766 24.6914 25.7754 23.8301 24.9082 22.7285C24.041 21.6152 23.6074 20.332 23.6074 18.8789V18.8438C23.6074 17.7422 23.8594 16.752 24.3633 15.873C24.8672 14.9941 25.5586 14.2617 26.4375 13.6758C27.3164 13.0898 28.3242 12.6855 29.4609 12.4629V12.3574C27.9961 11.9941 26.8066 11.3203 25.8926 10.3359C24.9902 9.33984 24.5391 8.16211 24.5391 6.80273V6.76758C24.5391 5.45508 24.9316 4.29492 25.7168 3.28711C26.502 2.26758 27.5918 1.46484 28.9863 0.878906C30.3926 0.292969 32.0098 0 33.8379 0C35.666 0 37.2773 0.292969 38.6719 0.878906C40.0664 1.46484 41.1562 2.26758 41.9414 3.28711C42.7383 4.29492 43.1367 5.45508 43.1367 6.76758V6.80273C43.1367 8.16211 42.6797 9.33984 41.7656 10.3359C40.8633 11.3203 39.6797 11.9941 38.2148 12.3574V12.4629C39.3516 12.6855 40.3594 13.0898 41.2383 13.6758C42.1172 14.2617 42.8027 14.9941 43.2949 15.873C43.7988 16.752 44.0508 17.7422 44.0508 18.8438V18.8789C44.0508 20.332 43.6172 21.6152 42.75 22.7285C41.8945 23.8301 40.6992 24.6914 39.1641 25.3125C37.6289 25.9336 35.8535 26.2441 33.8379 26.2441ZM33.8379 22.377C34.7637 22.377 35.5781 22.2129 36.2812 21.8848C36.9844 21.5566 37.5352 21.0996 37.9336 20.5137C38.3438 19.9277 38.5488 19.2656 38.5488 18.5273V18.4922C38.5488 17.7422 38.3496 17.0742 37.9512 16.4883C37.5527 15.9023 36.9961 15.4453 36.2812 15.1172C35.5781 14.7773 34.7637 14.6074 33.8379 14.6074C32.9004 14.6074 32.0742 14.7773 31.3594 15.1172C30.6562 15.4453 30.1055 15.9023 29.707 16.4883C29.3086 17.0742 29.1094 17.7422 29.1094 18.4922V18.5273C29.1094 19.2656 29.3086 19.9277 29.707 20.5137C30.1172 21.0996 30.6738 21.5566 31.377 21.8848C32.0918 22.2129 32.9121 22.377 33.8379 22.377ZM33.8379 10.7578C34.6348 10.7578 35.3379 10.6113 35.9473 10.3184C36.5566 10.0254 37.0312 9.62109 37.3711 9.10547C37.7109 8.57812 37.8809 7.97461 37.8809 7.29492V7.25977C37.8809 6.58008 37.7051 5.98242 37.3535 5.4668C37.0137 4.95117 36.5391 4.55273 35.9297 4.27148C35.3203 3.97852 34.623 3.83203 33.8379 3.83203C33.041 3.83203 32.3379 3.97852 31.7285 4.27148C31.1191 4.55273 30.6387 4.95117 30.2871 5.4668C29.9473 5.98242 29.7773 6.58008 29.7773 7.25977V7.29492C29.7773 7.97461 29.9473 8.57812 30.2871 9.10547C30.6387 9.62109 31.1191 10.0254 31.7285 10.3184C32.3379 10.6113 33.041 10.7578 33.8379 10.7578ZM57.4453 26.2441C55.9102 26.2441 54.498 25.9746 53.209 25.4355C51.9316 24.8965 50.8125 24.0938 49.8516 23.0273C48.9023 21.9492 48.1641 20.6074 47.6367 19.002C47.1211 17.3848 46.8633 15.498 46.8633 13.3418V13.3066C46.8633 10.541 47.291 8.16211 48.1465 6.16992C49.002 4.17773 50.2207 2.6543 51.8027 1.59961C53.3965 0.533203 55.2949 0 57.498 0C59.1387 0 60.6152 0.292969 61.9277 0.878906C63.2402 1.45313 64.3242 2.25 65.1797 3.26953C66.0469 4.28906 66.6035 5.44922 66.8496 6.75L66.8848 6.92578H61.6465L61.5938 6.76758C61.3828 6.25195 61.084 5.80664 60.6973 5.43164C60.3223 5.04492 59.8652 4.74609 59.3262 4.53516C58.7871 4.3125 58.1719 4.20117 57.4805 4.20117C56.25 4.20117 55.2363 4.55859 54.4395 5.27344C53.6543 5.98828 53.0625 6.94922 52.6641 8.15625C52.2656 9.36328 52.0312 10.7168 51.9609 12.2168C51.9492 12.3926 51.9375 12.5684 51.9258 12.7441C51.9258 12.9199 51.9258 13.0957 51.9258 13.2715L52.7344 17.4902C52.7344 18.334 52.9395 19.1016 53.3496 19.793C53.7598 20.4727 54.3164 21.0176 55.0195 21.4277C55.7227 21.8262 56.5078 22.0254 57.375 22.0254C58.2422 22.0254 59.0273 21.8262 59.7305 21.4277C60.4336 21.0293 60.9961 20.4961 61.418 19.8281C61.8398 19.1484 62.0508 18.3926 62.0508 17.5605V17.5254C62.0508 16.6465 61.8457 15.8672 61.4355 15.1875C61.0371 14.5078 60.4863 13.9805 59.7832 13.6055C59.0918 13.2188 58.3066 13.0254 57.4277 13.0254C56.5488 13.0254 55.752 13.2188 55.0371 13.6055C54.3223 13.9805 53.7598 14.502 53.3496 15.1699C52.9395 15.8379 52.7344 16.5996 52.7344 17.4551V17.4902H51.6621V13.1836H52.0312C52.3711 12.3984 52.8633 11.7012 53.5078 11.0918C54.1641 10.4824 54.9492 10.002 55.8633 9.65039C56.7891 9.28711 57.8203 9.10547 58.957 9.10547C60.5977 9.10547 62.0332 9.46289 63.2637 10.1777C64.5059 10.8809 65.4727 11.8535 66.1641 13.0957C66.8672 14.3379 67.2188 15.75 67.2188 17.332V17.3672C67.2188 19.1016 66.7969 20.6367 65.9531 21.9727C65.1094 23.2969 63.9492 24.3398 62.4727 25.1016C61.0078 25.8633 59.332 26.2441 57.4453 26.2441ZM71.1562 17.7363V13.2539H82.5469V17.7363H71.1562ZM86.5898 25.8047V22.166L95.5547 13.7812C96.6562 12.7617 97.4883 11.9121 98.0508 11.2324C98.6133 10.5527 98.9941 9.94336 99.1934 9.4043C99.4043 8.86523 99.5098 8.30273 99.5098 7.7168V7.68164C99.5098 6.99023 99.3457 6.38086 99.0176 5.85352C98.6895 5.31445 98.2324 4.89258 97.6465 4.58789C97.0723 4.2832 96.4102 4.13086 95.6602 4.13086C94.793 4.13086 94.0312 4.30664 93.375 4.6582C92.7188 4.99805 92.2031 5.47266 91.8281 6.08203C91.4531 6.67969 91.2539 7.35938 91.2305 8.12109L91.2129 8.2793H86.291V8.13867C86.291 6.54492 86.6953 5.13867 87.5039 3.91992C88.3125 2.68945 89.4199 1.72852 90.8262 1.03711C92.2441 0.345703 93.8438 0 95.625 0C97.418 0 98.9941 0.316406 100.354 0.949219C101.713 1.57031 102.773 2.4375 103.535 3.55078C104.297 4.66406 104.678 5.94141 104.678 7.38281V7.41797C104.678 8.4375 104.49 9.38672 104.115 10.2656C103.752 11.1328 103.148 12.0586 102.305 13.043C101.461 14.0156 100.307 15.1758 98.8418 16.5234L91.4941 23.2207L93.5332 19.6523V23.2207L91.5117 21.5859H105.029V25.8047H86.5898ZM108.316 25.8047V22.166L117.281 13.7812C118.383 12.7617 119.215 11.9121 119.777 11.2324C120.34 10.5527 120.721 9.94336 120.92 9.4043C121.131 8.86523 121.236 8.30273 121.236 7.7168V7.68164C121.236 6.99023 121.072 6.38086 120.744 5.85352C120.416 5.31445 119.959 4.89258 119.373 4.58789C118.799 4.2832 118.137 4.13086 117.387 4.13086C116.52 4.13086 115.758 4.30664 115.102 4.6582C114.445 4.99805 113.93 5.47266 113.555 6.08203C113.18 6.67969 112.98 7.35938 112.957 8.12109L112.939 8.2793H108.018V8.13867C108.018 6.54492 108.422 5.13867 109.23 3.91992C110.039 2.68945 111.146 1.72852 112.553 1.03711C113.971 0.345703 115.57 0 117.352 0C119.145 0 120.721 0.316406 122.08 0.949219C123.439 1.57031 124.5 2.4375 125.262 3.55078C126.023 4.66406 126.404 5.94141 126.404 7.38281V7.41797C126.404 8.4375 126.217 9.38672 125.842 10.2656C125.479 11.1328 124.875 12.0586 124.031 13.043C123.188 14.0156 122.033 15.1758 120.568 16.5234L113.221 23.2207L115.26 19.6523V23.2207L113.238 21.5859H126.756V25.8047H108.316ZM139.781 26.2441C137.941 26.2441 136.33 25.916 134.947 25.2598C133.564 24.6035 132.469 23.7129 131.66 22.5879C130.852 21.4629 130.395 20.1973 130.289 18.791L130.271 18.5273H135.176L135.211 18.6504C135.34 19.2832 135.609 19.8574 136.02 20.373C136.441 20.8887 136.975 21.2988 137.619 21.6035C138.264 21.8965 138.99 22.043 139.799 22.043C140.725 22.043 141.539 21.8496 142.242 21.4629C142.957 21.0645 143.514 20.5195 143.912 19.8281C144.322 19.1367 144.527 18.3398 144.527 17.4375V17.4023C144.527 16.5117 144.322 15.7266 143.912 15.0469C143.514 14.3555 142.957 13.8164 142.242 13.4297C141.539 13.043 140.73 12.8496 139.816 12.8496C139.172 12.8496 138.574 12.9434 138.023 13.1309C137.473 13.3066 136.98 13.5703 136.547 13.9219C136.301 14.1211 136.072 14.3379 135.861 14.5723C135.65 14.8066 135.475 15.0586 135.334 15.3281H130.711L131.871 0.439453H148.061V4.6582H136.09L135.475 11.7949H135.58C135.932 11.2207 136.389 10.7344 136.951 10.3359C137.525 9.92578 138.176 9.60938 138.902 9.38672C139.641 9.16406 140.438 9.05273 141.293 9.05273C142.91 9.05273 144.34 9.41016 145.582 10.125C146.824 10.8281 147.803 11.8008 148.518 13.043C149.232 14.2852 149.59 15.7031 149.59 17.2969V17.332C149.59 19.1016 149.174 20.6543 148.342 21.9902C147.521 23.3262 146.373 24.3691 144.896 25.1191C143.42 25.8691 141.715 26.2441 139.781 26.2441ZM153 17.7363V13.2539H164.391V17.7363H153ZM178.102 0C179.637 0 181.043 0.269531 182.32 0.808594C183.609 1.33594 184.729 2.13867 185.678 3.2168C186.639 4.29492 187.377 5.64258 187.893 7.25977C188.42 8.86523 188.684 10.7402 188.684 12.8848V12.9199C188.684 15.6973 188.256 18.082 187.4 20.0742C186.545 22.0547 185.326 23.5781 183.744 24.6445C182.162 25.7109 180.264 26.2441 178.049 26.2441C176.42 26.2441 174.943 25.9512 173.619 25.3652C172.307 24.7793 171.223 23.9824 170.367 22.9746C169.512 21.9551 168.955 20.7891 168.697 19.4766L168.662 19.3184H173.9L173.953 19.459C174.164 19.9629 174.457 20.4082 174.832 20.7949C175.219 21.1816 175.682 21.4863 176.221 21.709C176.76 21.9199 177.375 22.0254 178.066 22.0254C179.309 22.0254 180.322 21.668 181.107 20.9531C181.893 20.2383 182.484 19.2773 182.883 18.0703C183.293 16.8516 183.527 15.498 183.586 14.0098C183.598 13.834 183.604 13.6641 183.604 13.5C183.615 13.3242 183.621 13.1484 183.621 12.9727L182.812 8.75391C182.812 7.89844 182.607 7.13086 182.197 6.45117C181.787 5.75977 181.23 5.21484 180.527 4.81641C179.824 4.41797 179.039 4.21875 178.172 4.21875C177.305 4.21875 176.52 4.41797 175.816 4.81641C175.113 5.20312 174.551 5.73633 174.129 6.41602C173.707 7.08398 173.496 7.83984 173.496 8.68359V8.71875C173.496 9.59766 173.695 10.377 174.094 11.0566C174.504 11.7246 175.055 12.252 175.746 12.6387C176.449 13.0137 177.24 13.2012 178.119 13.2012C179.01 13.2012 179.807 13.0137 180.51 12.6387C181.225 12.2637 181.787 11.7422 182.197 11.0742C182.607 10.4062 182.812 9.63867 182.812 8.77148V8.75391H183.885V13.043H183.516C183.176 13.8281 182.684 14.5312 182.039 15.1523C181.395 15.7617 180.609 16.2422 179.684 16.5938C178.77 16.9453 177.738 17.1211 176.59 17.1211C174.961 17.1211 173.525 16.7695 172.283 16.0664C171.041 15.3516 170.068 14.373 169.365 13.1309C168.674 11.8887 168.328 10.4766 168.328 8.89453V8.85938C168.328 7.13672 168.75 5.60742 169.594 4.27148C170.438 2.93555 171.592 1.89258 173.057 1.14258C174.533 0.380859 176.215 0 178.102 0ZM198.088 25.8047V5.30859H197.982L191.514 9.70312V4.99219L198.07 0.439453H203.344V25.8047H198.088ZM215.385 25.8047V5.30859H215.279L208.811 9.70312V4.99219L215.367 0.439453H220.641V25.8047H215.385ZM236.074 26.2441C234.234 26.2441 232.623 25.916 231.24 25.2598C229.857 24.6035 228.762 23.7129 227.953 22.5879C227.145 21.4629 226.688 20.1973 226.582 18.791L226.564 18.5273H231.469L231.504 18.6504C231.633 19.2832 231.902 19.8574 232.312 20.373C232.734 20.8887 233.268 21.2988 233.912 21.6035C234.557 21.8965 235.283 22.043 236.092 22.043C237.018 22.043 237.832 21.8496 238.535 21.4629C239.25 21.0645 239.807 20.5195 240.205 19.8281C240.615 19.1367 240.82 18.3398 240.82 17.4375V17.4023C240.82 16.5117 240.615 15.7266 240.205 15.0469C239.807 14.3555 239.25 13.8164 238.535 13.4297C237.832 13.043 237.023 12.8496 236.109 12.8496C235.465 12.8496 234.867 12.9434 234.316 13.1309C233.766 13.3066 233.273 13.5703 232.84 13.9219C232.594 14.1211 232.365 14.3379 232.154 14.5723C231.943 14.8066 231.768 15.0586 231.627 15.3281H227.004L228.164 0.439453H244.354V4.6582H232.383L231.768 11.7949H231.873C232.225 11.2207 232.682 10.7344 233.244 10.3359C233.818 9.92578 234.469 9.60938 235.195 9.38672C235.934 9.16406 236.73 9.05273 237.586 9.05273C239.203 9.05273 240.633 9.41016 241.875 10.125C243.117 10.8281 244.096 11.8008 244.811 13.043C245.525 14.2852 245.883 15.7031 245.883 17.2969V17.332C245.883 19.1016 245.467 20.6543 244.635 21.9902C243.814 23.3262 242.666 24.3691 241.189 25.1191C239.713 25.8691 238.008 26.2441 236.074 26.2441Z" fill="#5A3226"/>
</svg>
