<svg width="169" height="18" viewBox="0 0 169 18" fill="none" xmlns="http://www.w3.org/2000/svg">
<path d="M4.38281 17.2266V3.58594H4.28906L0 6.50391V3.35156L4.37109 0.316406H7.89844V17.2266H4.38281ZM11.8477 17.2266V14.8125L17.7305 9.26953C18.4727 8.56641 19.0352 7.98438 19.418 7.52344C19.8086 7.0625 20.0742 6.65234 20.2148 6.29297C20.3555 5.93359 20.4258 5.55859 20.4258 5.16797V5.13281C20.4258 4.67188 20.3164 4.26172 20.0977 3.90234C19.8867 3.54297 19.5859 3.26172 19.1953 3.05859C18.8125 2.85547 18.3672 2.75391 17.8594 2.75391C17.2891 2.75391 16.7852 2.87109 16.3477 3.10547C15.9102 3.33203 15.5664 3.64844 15.3164 4.05469C15.0742 4.45312 14.9453 4.91016 14.9297 5.42578V5.51953H11.6484V5.42578C11.6484 4.36328 11.9141 3.42578 12.4453 2.61328C12.9844 1.79297 13.7227 1.15234 14.6602 0.691406C15.6055 0.230469 16.6758 0 17.8711 0C19.0586 0 20.1016 0.210938 21 0.632812C21.9062 1.04688 22.6133 1.625 23.1211 2.36719C23.6289 3.10156 23.8828 3.95312 23.8828 4.92188V4.94531C23.8828 5.61719 23.7578 6.25 23.5078 6.84375C23.2656 7.42969 22.8594 8.05469 22.2891 8.71875C21.7188 9.375 20.9414 10.1562 19.957 11.0625L15.2109 15.4102L16.4883 13.1836V15.4102L15.2227 14.4023H24.1172V17.2266H11.8477ZM32.7891 17.5312C31.5156 17.5312 30.3984 17.3242 29.4375 16.9102C28.4844 16.4883 27.7266 15.9062 27.1641 15.1641C26.6094 14.4141 26.293 13.5508 26.2148 12.5742L26.2031 12.4336H29.5781L29.6016 12.5625C29.6562 12.9688 29.8164 13.332 30.082 13.6523C30.3555 13.9727 30.7188 14.2266 31.1719 14.4141C31.6328 14.6016 32.168 14.6953 32.7773 14.6953C33.3867 14.6953 33.9141 14.5938 34.3594 14.3906C34.8047 14.1875 35.1484 13.9062 35.3906 13.5469C35.6406 13.1875 35.7656 12.7773 35.7656 12.3164V12.293C35.7656 11.4805 35.4805 10.8594 34.9102 10.4297C34.3398 10 33.543 9.78516 32.5195 9.78516H30.5859V7.26562H32.4727C33.0664 7.26562 33.582 7.16797 34.0195 6.97266C34.457 6.77734 34.793 6.50781 35.0273 6.16406C35.2695 5.8125 35.3906 5.41016 35.3906 4.95703V4.93359C35.3906 4.47266 35.2852 4.07812 35.0742 3.75C34.8711 3.42188 34.5703 3.17188 34.1719 3C33.7812 2.82031 33.3086 2.73047 32.7539 2.73047C32.207 2.73047 31.7227 2.82031 31.3008 3C30.8789 3.17969 30.543 3.43359 30.293 3.76172C30.043 4.08984 29.8906 4.47656 29.8359 4.92188L29.8242 5.02734H26.5781L26.5898 4.88672C26.668 3.90234 26.9727 3.04688 27.5039 2.32031C28.0352 1.58594 28.7461 1.01953 29.6367 0.621094C30.5352 0.214844 31.5742 0.0117188 32.7539 0.0117188C33.9727 0.0117188 35.0273 0.199219 35.918 0.574219C36.8164 0.941406 37.5117 1.46094 38.0039 2.13281C38.4961 2.79688 38.7422 3.57422 38.7422 4.46484V4.48828C38.7422 5.19141 38.5859 5.80859 38.2734 6.33984C37.9609 6.87109 37.5352 7.30859 36.9961 7.65234C36.4648 7.99609 35.8711 8.23828 35.2148 8.37891V8.44922C36.4727 8.56641 37.4766 8.97266 38.2266 9.66797C38.9844 10.3633 39.3633 11.2852 39.3633 12.4336V12.457C39.3633 13.4648 39.0898 14.3516 38.543 15.1172C37.9961 15.8828 37.2305 16.4766 36.2461 16.8984C35.2617 17.3203 34.1094 17.5312 32.7891 17.5312ZM42.0586 11.8594V8.85938H49.6875V11.8594H42.0586ZM60.5742 17.2266V14.1211H52.1953V11.2031C52.6406 10.4766 53.0859 9.75 53.5312 9.02344C53.9844 8.28906 54.4375 7.55859 54.8906 6.83203C55.3438 6.10547 55.793 5.37891 56.2383 4.65234C56.6914 3.92578 57.1445 3.20312 57.5977 2.48438C58.0508 1.75781 58.5039 1.03516 58.957 0.316406H63.9375V11.2969H66.1641V14.1211H63.9375V17.2266H60.5742ZM55.2891 11.3906H60.6445V2.89453H60.5391C60.1953 3.44922 59.8477 4.00391 59.4961 4.55859C59.1445 5.11328 58.793 5.67188 58.4414 6.23438C58.0898 6.79688 57.7344 7.35938 57.375 7.92188C57.0234 8.48438 56.6719 9.04688 56.3203 9.60938C55.9766 10.1641 55.6328 10.7227 55.2891 11.2852V11.3906ZM74.7656 17.543C73.5391 17.543 72.4648 17.3281 71.543 16.8984C70.6211 16.4609 69.8906 15.8672 69.3516 15.1172C68.8203 14.3594 68.5195 13.5117 68.4492 12.5742L68.4375 12.4102H71.707L71.7188 12.4922C71.8047 12.9062 71.9844 13.2852 72.2578 13.6289C72.5391 13.9727 72.8945 14.2461 73.3242 14.4492C73.7539 14.6445 74.2383 14.7422 74.7773 14.7422C75.3867 14.7422 75.9258 14.6133 76.3945 14.3555C76.8711 14.0898 77.2422 13.7266 77.5078 13.2656C77.7734 12.7969 77.9062 12.2617 77.9062 11.6602V11.6367C77.9062 11.043 77.7695 10.5195 77.4961 10.0664C77.2305 9.61328 76.8633 9.25781 76.3945 9C75.9258 8.73438 75.3906 8.60156 74.7891 8.60156C74.3594 8.60156 73.9609 8.66406 73.5938 8.78906C73.2266 8.91406 72.8984 9.09375 72.6094 9.32812C72.4453 9.45312 72.293 9.59766 72.1523 9.76172C72.0195 9.91797 71.9023 10.0859 71.8008 10.2656H68.7305L69.5039 0.316406H80.2617V3.12891H72.3164L71.8945 7.89844H71.9883C72.2227 7.51562 72.5273 7.19141 72.9023 6.92578C73.2773 6.65234 73.707 6.44141 74.1914 6.29297C74.6758 6.14453 75.1992 6.07031 75.7617 6.07031C76.832 6.07031 77.7812 6.30859 78.6094 6.78516C79.4375 7.25391 80.0898 7.90234 80.5664 8.73047C81.043 9.55859 81.2812 10.5078 81.2812 11.5781V11.6016C81.2812 12.7812 81.0039 13.8164 80.4492 14.707C79.9023 15.5977 79.1367 16.293 78.1523 16.793C77.1758 17.293 76.0469 17.543 74.7656 17.543ZM90.2578 17.543C89.2422 17.543 88.3047 17.3672 87.4453 17.0156C86.5938 16.6562 85.8477 16.1172 85.207 15.3984C84.5742 14.6797 84.082 13.7812 83.7305 12.7031C83.3789 11.625 83.2031 10.3672 83.2031 8.92969V8.90625C83.2031 7.04688 83.4883 5.45312 84.0586 4.125C84.6289 2.79688 85.4414 1.77734 86.4961 1.06641C87.5586 0.355469 88.8203 0 90.2812 0C91.375 0 92.3594 0.195312 93.2344 0.585938C94.1094 0.96875 94.832 1.50391 95.4023 2.19141C95.9805 2.87109 96.3516 3.64844 96.5156 4.52344L96.5391 4.62891H93.0586L93.0117 4.53516C92.8789 4.18359 92.6836 3.88281 92.4258 3.63281C92.1758 3.375 91.8711 3.17578 91.5117 3.03516C91.1523 2.88672 90.7383 2.8125 90.2695 2.8125C89.4492 2.8125 88.7773 3.05078 88.2539 3.52734C87.7305 4.00391 87.3359 4.64844 87.0703 5.46094C86.8047 6.26562 86.6484 7.17188 86.6016 8.17969C86.5938 8.28906 86.5859 8.40234 86.5781 8.51953C86.5781 8.63672 86.5781 8.75391 86.5781 8.87109L87.1172 11.6836C87.1172 12.2539 87.2539 12.7695 87.5273 13.2305C87.8008 13.6914 88.1719 14.0586 88.6406 14.332C89.1094 14.5977 89.6328 14.7305 90.2109 14.7305C90.7812 14.7305 91.3008 14.5977 91.7695 14.332C92.2461 14.0664 92.6211 13.707 92.8945 13.2539C93.1758 12.8008 93.3164 12.2969 93.3164 11.7422V11.7188C93.3164 11.1328 93.1797 10.6133 92.9062 10.1602C92.6406 9.70703 92.2773 9.35156 91.8164 9.09375C91.3555 8.83594 90.832 8.70703 90.2461 8.70703C89.6602 8.70703 89.1289 8.83594 88.6523 9.09375C88.1758 9.34375 87.8008 9.69141 87.5273 10.1367C87.2539 10.582 87.1172 11.0938 87.1172 11.6719V11.6836H86.4023V8.77734H86.6836C86.9023 8.26953 87.2227 7.81641 87.6445 7.41797C88.0742 7.01172 88.5898 6.69141 89.1914 6.45703C89.8008 6.21484 90.4883 6.09375 91.2539 6.09375C92.3477 6.09375 93.3047 6.33203 94.125 6.80859C94.9531 7.28516 95.5977 7.9375 96.0586 8.76562C96.5273 9.59375 96.7617 10.5352 96.7617 11.5898V11.6133C96.7617 12.7695 96.4805 13.793 95.918 14.6836C95.3555 15.5742 94.5859 16.2734 93.6094 16.7812C92.6328 17.2891 91.5156 17.543 90.2578 17.543ZM99.5273 11.8594V8.85938H107.156V11.8594H99.5273ZM110.883 17.2266L118.148 3.22266V3.12891H109.547V0.316406H121.652V3.16406L114.586 17.2266H110.883ZM130.453 17.5312C129.109 17.5312 127.922 17.3242 126.891 16.9102C125.867 16.4961 125.066 15.9219 124.488 15.1875C123.918 14.4453 123.633 13.5898 123.633 12.6211V12.5977C123.633 11.8633 123.797 11.2031 124.125 10.6172C124.461 10.0312 124.922 9.54297 125.508 9.15234C126.102 8.75391 126.777 8.48047 127.535 8.33203V8.26172C126.559 8.01953 125.766 7.57031 125.156 6.91406C124.547 6.25 124.242 5.46094 124.242 4.54688V4.52344C124.242 3.65625 124.504 2.88281 125.027 2.20312C125.559 1.52344 126.289 0.988281 127.219 0.597656C128.156 0.207031 129.234 0.0117188 130.453 0.0117188C131.672 0.0117188 132.746 0.207031 133.676 0.597656C134.613 0.988281 135.344 1.52344 135.867 2.20312C136.398 2.88281 136.664 3.65625 136.664 4.52344V4.54688C136.664 5.46094 136.359 6.25 135.75 6.91406C135.141 7.57031 134.348 8.01953 133.371 8.26172V8.33203C134.129 8.48047 134.801 8.75391 135.387 9.15234C135.973 9.54297 136.434 10.0312 136.77 10.6172C137.105 11.2031 137.273 11.8633 137.273 12.5977V12.6211C137.273 13.5898 136.984 14.4453 136.406 15.1875C135.836 15.9219 135.035 16.4961 134.004 16.9102C132.98 17.3242 131.797 17.5312 130.453 17.5312ZM130.453 14.9648C131.07 14.9648 131.613 14.8555 132.082 14.6367C132.559 14.4102 132.93 14.1016 133.195 13.7109C133.469 13.3203 133.605 12.8789 133.605 12.3867V12.3633C133.605 11.8555 133.473 11.4102 133.207 11.0273C132.941 10.6367 132.57 10.3281 132.094 10.1016C131.617 9.875 131.07 9.76172 130.453 9.76172C129.828 9.76172 129.277 9.875 128.801 10.1016C128.332 10.3281 127.965 10.6367 127.699 11.0273C127.434 11.4102 127.301 11.8555 127.301 12.3633V12.3867C127.301 12.8789 127.434 13.3203 127.699 13.7109C127.973 14.1016 128.344 14.4102 128.812 14.6367C129.289 14.8555 129.836 14.9648 130.453 14.9648ZM130.453 7.19531C130.984 7.19531 131.453 7.09766 131.859 6.90234C132.266 6.70703 132.582 6.4375 132.809 6.09375C133.043 5.74219 133.16 5.33984 133.16 4.88672V4.86328C133.16 4.41016 133.043 4.01172 132.809 3.66797C132.582 3.31641 132.266 3.04688 131.859 2.85938C131.453 2.66406 130.984 2.56641 130.453 2.56641C129.922 2.56641 129.453 2.66406 129.047 2.85938C128.641 3.04688 128.32 3.31641 128.086 3.66797C127.859 4.01172 127.746 4.41016 127.746 4.86328V4.88672C127.746 5.33984 127.859 5.74219 128.086 6.09375C128.312 6.4375 128.629 6.70703 129.035 6.90234C129.449 7.09766 129.922 7.19531 130.453 7.19531ZM146.039 0C147.055 0 147.988 0.179688 148.84 0.539062C149.699 0.890625 150.445 1.42578 151.078 2.14453C151.711 2.86328 152.203 3.76172 152.555 4.83984C152.906 5.91797 153.082 7.17578 153.082 8.61328V8.63672C153.082 10.4961 152.797 12.0898 152.227 13.418C151.656 14.7461 150.844 15.7656 149.789 16.4766C148.734 17.1875 147.473 17.543 146.004 17.543C144.918 17.543 143.934 17.3477 143.051 16.957C142.176 16.5664 141.453 16.0312 140.883 15.3516C140.312 14.6719 139.941 13.8945 139.77 13.0195L139.746 12.9141H143.238L143.273 13.0078C143.414 13.3516 143.609 13.6523 143.859 13.9102C144.117 14.168 144.426 14.3711 144.785 14.5195C145.145 14.6602 145.555 14.7305 146.016 14.7305C146.844 14.7305 147.52 14.4922 148.043 14.0156C148.566 13.5391 148.961 12.8945 149.227 12.082C149.492 11.2695 149.645 10.3633 149.684 9.36328C149.691 9.24609 149.695 9.13281 149.695 9.02344C149.703 8.90625 149.707 8.78906 149.707 8.67188L149.168 5.85938C149.168 5.28125 149.031 4.76562 148.758 4.3125C148.484 3.85156 148.113 3.48828 147.645 3.22266C147.184 2.94922 146.66 2.8125 146.074 2.8125C145.504 2.8125 144.984 2.94531 144.516 3.21094C144.047 3.47656 143.672 3.83594 143.391 4.28906C143.109 4.73438 142.969 5.23828 142.969 5.80078V5.82422C142.969 6.41016 143.102 6.92969 143.367 7.38281C143.641 7.83594 144.008 8.19141 144.469 8.44922C144.938 8.70703 145.461 8.83594 146.039 8.83594C146.633 8.83594 147.164 8.71094 147.633 8.46094C148.109 8.20312 148.484 7.85156 148.758 7.40625C149.031 6.96094 149.168 6.44922 149.168 5.87109V5.85938H149.883V8.76562H149.602C149.383 9.27344 149.062 9.73047 148.641 10.1367C148.219 10.5352 147.703 10.8555 147.094 11.0977C146.492 11.332 145.805 11.4492 145.031 11.4492C143.945 11.4492 142.988 11.2109 142.16 10.7344C141.332 10.2578 140.684 9.60547 140.215 8.77734C139.754 7.94922 139.523 7.00781 139.523 5.95312V5.92969C139.523 4.77344 139.805 3.75 140.367 2.85938C140.93 1.96875 141.699 1.26953 142.676 0.761719C143.66 0.253906 144.781 0 146.039 0ZM162.07 17.543C160.648 17.543 159.422 17.1875 158.391 16.4766C157.367 15.7656 156.582 14.7539 156.035 13.4414C155.488 12.1289 155.215 10.5742 155.215 8.77734V8.75391C155.215 6.95703 155.488 5.40234 156.035 4.08984C156.582 2.77734 157.367 1.76953 158.391 1.06641C159.422 0.355469 160.648 0 162.07 0C163.492 0 164.715 0.355469 165.738 1.06641C166.762 1.76953 167.547 2.77734 168.094 4.08984C168.648 5.40234 168.926 6.95703 168.926 8.75391V8.77734C168.926 10.5742 168.648 12.1289 168.094 13.4414C167.547 14.7539 166.762 15.7656 165.738 16.4766C164.715 17.1875 163.492 17.543 162.07 17.543ZM162.07 14.7188C162.766 14.7188 163.355 14.4844 163.84 14.0156C164.332 13.5391 164.707 12.8594 164.965 11.9766C165.223 11.0859 165.352 10.0195 165.352 8.77734V8.75391C165.352 7.51172 165.223 6.44922 164.965 5.56641C164.707 4.67578 164.332 3.99609 163.84 3.52734C163.355 3.05859 162.766 2.82422 162.07 2.82422C161.375 2.82422 160.781 3.05859 160.289 3.52734C159.805 3.99609 159.434 4.67578 159.176 5.56641C158.918 6.44922 158.789 7.51172 158.789 8.75391V8.77734C158.789 10.0195 158.918 11.0859 159.176 11.9766C159.434 12.8594 159.805 13.5391 160.289 14.0156C160.781 14.4844 161.375 14.7188 162.07 14.7188Z" fill="#5A3226"/>
</svg>
