<svg width="50" height="50" viewBox="0 0 50 50" fill="none" xmlns="http://www.w3.org/2000/svg">
<path d="M36.0255 39.2898C34.7983 41.358 32.4146 42.0387 30.2105 41.0596C25.2854 38.8717 20.3507 35.2056 16.6624 30.035C12.9742 24.8672 11.1238 19.0201 10.6719 13.6722C10.4688 11.2794 11.9004 9.26481 14.2676 8.79313L15.0912 8.62949L15.5555 8.53736C16.3626 8.37647 17.1834 8.745 17.5966 9.45321L21.8514 16.7374C22.1969 17.3287 22.1347 18.0712 21.6966 18.5979L19.5934 21.1213C19.0199 21.8089 18.9301 22.7784 19.3723 23.5553C19.9776 24.6197 20.6478 25.6703 21.383 26.7003C22.1181 27.7303 22.8934 28.7066 23.7032 29.6252C24.2946 30.2963 25.244 30.5314 26.0855 30.2207L29.1727 29.0779C29.8166 28.84 30.5421 29.0257 30.9885 29.5455L36.4967 35.944C37.0329 36.5656 37.1102 37.4581 36.6915 38.1635L36.4511 38.5692L36.0241 39.2884L36.0255 39.2898Z" fill="#5A3226"/>
<path d="M30.7587 24.4188L29.1005 24.1382C29.0535 22.4289 27.9646 20.9011 26.3574 20.2947L26.6393 18.6445C29.1433 19.4366 30.832 21.8046 30.7587 24.4188Z" fill="#5A3226"/>
<path d="M34.8835 25.1146L33.2418 24.8368C33.5237 20.864 30.923 17.2171 27.062 16.172L27.3412 14.5384C32.1031 15.7471 35.3091 20.2411 34.8849 25.1132L34.8835 25.1146Z" fill="#5A3226"/>
<path d="M39.2572 25.853L37.6197 25.5766C38.2899 19.2041 34.0682 13.2883 27.8027 11.8169L28.0805 10.1873C35.247 11.8155 40.0753 18.5826 39.2572 25.853Z" fill="#5A3226"/>
</svg>
